<?xml version="1.0" encoding="UTF-8"?>
<svg width="174px" height="152px" viewBox="0 0 174 152" version="1.1" xmlns="http://www.w3.org/2000/svg" xmlns:xlink="http://www.w3.org/1999/xlink">
    <!-- Generator: Sketch 47.1 (45422) - http://www.bohemiancoding.com/sketch -->
    <title>icon - explorer - reverse</title>
    <desc>Created with Sketch.</desc>
    <defs></defs>
    <g id="Explorer-images" stroke="none" stroke-width="1" fill="none" fill-rule="evenodd">
        <g id="icon---explorer---reverse">
            <g id="blocks" transform="translate(46.239998, 125.559998)" fill-rule="nonzero" fill="#FFFFFF">
                <path d="M105.721658,22.2071051 L123.958705,22.2071051 L123.958705,3.70118418 L105.721658,3.70118418 L105.721658,22.2071051 Z M102.078932,0 L127.601431,0 L127.601431,25.9082892 L102.078932,25.9082892 L102.078932,0 Z" id="block"></path>
                <path d="M54.7786838,22.2071051 L73.0157301,22.2071051 L73.0157301,3.70118418 L54.7786838,3.70118418 L54.7786838,22.2071051 Z M51.1359575,0 L76.6584564,0 L76.6584564,25.9082892 L51.1359575,25.9082892 L51.1359575,0 Z" id="block"></path>
                <path d="M3.7253235,3.70118418 L3.7253235,22.2071051 L21.9623699,22.2071051 L21.9623699,3.70118418 L3.7253235,3.70118418 Z M0.0825972578,0 L25.6050961,0 L25.6050961,25.9082892 L0.0825972578,25.9082892 L0.0825972578,0 Z" id="block"></path>
            </g>
            <g id="explorer-icon" fill="#00AFFF">
                <path d="M65.0919316,67.9057766 L97.8265154,108.146552 L129.912648,108.146552 L95.3527547,67.6649311 L65.3050021,67.6649311 C76.0777928,55.4939364 96.8497191,32.9389593 127.620781,0 L95.5346489,0 L64.8960115,37.8415149 L34.4986232,0 L2.17124202,0 L46.9229525,52.8998956 L0,108.146552 L32.0861321,108.146552 C43.308028,93.5246375 54.2446545,80.1849383 64.8960115,68.127454 C64.9609371,68.0539573 65.0262438,67.9800649 65.0919316,67.9057766 L65.0919316,67.9057766 Z" id="x"></path>
            </g>
        </g>
    </g>
</svg>