<?xml version="1.0" encoding="UTF-8"?>
<svg width="434px" height="101px" viewBox="0 0 434 101" version="1.1" xmlns="http://www.w3.org/2000/svg" xmlns:xlink="http://www.w3.org/1999/xlink">
    <!-- Generator: Sketch 47.1 (45422) - http://www.bohemiancoding.com/sketch -->
    <title>full - explorer - reverse</title>
    <desc>Created with Sketch.</desc>
    <defs></defs>
    <g id="Explorer-images" stroke="none" stroke-width="1" fill="none" fill-rule="evenodd">
        <g id="full---explorer---reverse">
            <g id="explorer-full">
                <g id="blocks" transform="translate(223.650024, 86.300000)" fill-rule="nonzero" fill="#FFFFFF">
                    <path d="M170.469697,2 L170.469697,12 L180.482553,12 L180.482553,2 L170.469697,2 Z M168.469697,0 L182.482553,0 L182.482553,14 L168.469697,14 L168.469697,0 Z" id="block"></path>
                    <path d="M142.5,12 L152.512856,12 L152.512856,2 L142.5,2 L142.5,12 Z M140.5,0 L154.512856,0 L154.512856,14 L140.5,14 L140.5,0 Z" id="block"></path>
                    <path d="M114.469697,12 L124.482553,12 L124.482553,2 L114.469697,2 L114.469697,12 Z M112.469697,0 L126.482553,0 L126.482553,14 L112.469697,14 L112.469697,0 Z" id="block"></path>
                    <path d="M86.5,12 L96.5128558,12 L96.5128558,2 L86.5,2 L86.5,12 Z M84.5,0 L98.5128558,0 L98.5128558,14 L84.5,14 L84.5,0 Z" id="block"></path>
                    <path d="M58.469697,12 L68.4825528,12 L68.4825528,2 L58.469697,2 L58.469697,12 Z M56.469697,0 L70.4825528,0 L70.4825528,14 L56.469697,14 L56.469697,0 Z" id="block"></path>
                    <path d="M30.5,12 L40.5128558,12 L40.5128558,2 L30.5,2 L30.5,12 Z M28.5,0 L42.5128558,0 L42.5128558,14 L28.5,14 L28.5,0 Z" id="block"></path>
                    <path d="M2.46969697,2 L2.46969697,12 L12.4825528,12 L12.4825528,2 L2.46969697,2 Z M0.46969697,0 L14.4825528,0 L14.4825528,14 L0.46969697,14 L0.46969697,0 Z" id="block"></path>
                </g>
                <path d="M33.2581282,77.1100647 C22.9017001,77.1100647 14.8033357,74.6580954 8.96279198,69.7540833 C3.12224826,64.8500711 0.202020202,58.0969729 0.202020202,49.4945862 C0.202020202,40.6641058 2.91151015,33.7236479 8.33057134,28.6730042 C13.7496325,23.6223604 21.1957123,21.0970764 30.6690341,21.0970764 C39.4599556,21.0970764 46.404278,23.263933 51.5022096,27.5977112 C56.6001412,31.9314894 59.1490688,37.894418 59.1490688,45.486676 L59.1490688,51.6940491 L14.7732008,51.6940491 C14.9739067,56.9402016 16.7200225,60.9725099 20.0116004,63.791095 C23.3031783,66.60968 27.9394166,68.0189514 33.9204545,68.0189514 C37.8542916,68.0189514 41.5171206,67.7175466 44.9090515,67.1147278 C48.3009823,66.511909 51.9437411,65.5099415 55.8374369,64.1087952 L55.8374369,73.4442932 C52.3852942,74.7802699 48.8930627,75.7252149 45.3606376,76.2791565 C41.8282126,76.8330981 37.7940831,77.1100647 33.2581282,77.1100647 Z M30.6690341,29.7971741 C26.1732204,29.7971741 22.5706022,30.9539171 19.8610717,33.2674377 C17.1515411,35.5809584 15.5358822,38.9534345 15.0140467,43.384967 L45.2402146,43.384967 C45.1599323,38.9208497 43.8352927,35.5402276 41.2662563,33.2429993 C38.6972199,30.945771 35.1648478,29.7971741 30.6690341,29.7971741 Z M159.306581,77.1100647 C150.876931,77.1100647 144.334014,74.6499493 139.677636,69.7296448 L138.834675,69.7296448 C139.396652,74.2915165 139.677636,77.0611829 139.677636,78.0387268 L139.677636,100.179987 L125.527936,100.179987 L125.527936,22.0746155 L136.968119,22.0746155 C137.289248,23.0847442 137.951568,25.4959831 138.955098,29.3084045 L139.677636,29.3084045 C144.093167,23.8341584 150.716365,21.0970764 159.547427,21.0970764 C167.856655,21.0970764 174.329325,23.5408996 178.965633,28.4286194 C183.601941,33.3163391 185.92006,40.1753363 185.92006,49.0058167 C185.92006,57.836297 183.5618,64.7278785 178.84521,69.6807678 C174.12862,74.6336572 167.615809,77.1100647 159.306581,77.1100647 Z M155.874527,30.4814514 C150.254759,30.4814514 146.150384,31.8174081 143.561277,34.4893616 C140.97217,37.161315 139.677636,41.4298596 139.677636,47.2951233 L139.677636,49.0058167 C139.677636,55.5879459 140.962135,60.3534012 143.531171,63.3023254 C146.100208,66.2512497 150.294899,67.7256897 156.115372,67.7256897 C161.012598,67.7256897 164.785814,66.0964742 167.435133,62.8379944 C170.084451,59.5795146 171.409091,54.9362504 171.409091,48.9080627 C171.409091,42.8472903 170.094487,38.2610487 167.465238,35.1492004 C164.83599,32.0373522 160.972458,30.4814514 155.874527,30.4814514 Z M207.699416,76.1325256 L193.549716,76.1325256 L193.549716,0.0799865723 L207.699416,0.0799865723 L207.699416,76.1325256 Z M278.189867,49.0058167 C278.189867,57.836297 275.400096,64.7278785 269.82047,69.6807678 C264.240844,74.6336572 256.47364,77.1100647 246.518624,77.1100647 C240.296739,77.1100647 234.797478,75.9696139 230.020676,73.688678 C225.243873,71.4077421 221.571009,68.133019 219.001973,63.8644104 C216.432936,59.5958018 215.148438,54.6429868 215.148438,49.0058167 C215.148438,40.2405059 217.918138,33.3978009 223.457623,28.4774963 C228.997108,23.5571918 236.804453,21.0970764 246.879893,21.0970764 C256.513779,21.0970764 264.140492,23.6142143 269.760259,28.6485657 C275.380026,33.682917 278.189867,40.4685995 278.189867,49.0058167 Z M229.719618,49.0058167 C229.719618,61.4857944 235.399512,67.7256897 246.75947,67.7256897 C257.999004,67.7256897 263.618687,61.4857944 263.618687,49.0058167 C263.618687,36.6561781 257.958863,30.4814514 246.639047,30.4814514 C240.69815,30.4814514 236.393072,32.0780826 233.723682,35.2713928 C231.054293,38.4647031 229.719618,43.0427986 229.719618,49.0058167 Z M319.417535,21.0970764 C322.267559,21.0970764 324.615784,21.259998 326.462279,21.5858459 L325.077415,32.2898987 C323.070355,31.8988811 320.983044,31.7033752 318.81542,31.7033752 C313.155511,31.7033752 308.569449,33.2022535 305.057094,36.2000549 C301.54474,39.1978564 299.788589,43.0916814 299.788589,47.8816467 L299.788589,76.1325256 L285.638889,76.1325256 L285.638889,22.0746155 L296.717803,22.0746155 L298.584359,31.6056213 L299.306897,31.6056213 C301.514663,28.3797263 304.39475,25.821858 307.947246,23.9319397 C311.499742,22.0420214 315.323133,21.0970764 319.417535,21.0970764 Z M359.079703,77.1100647 C348.723275,77.1100647 340.624911,74.6580954 334.784367,69.7540833 C328.943823,64.8500711 326.023595,58.0969729 326.023595,49.4945862 C326.023595,40.6641058 328.733085,33.7236479 334.152146,28.6730042 C339.571208,23.6223604 347.017287,21.0970764 356.490609,21.0970764 C365.281531,21.0970764 372.225853,23.263933 377.323785,27.5977112 C382.421716,31.9314894 384.970644,37.894418 384.970644,45.486676 L384.970644,51.6940491 L340.594776,51.6940491 C340.795482,56.9402016 342.541598,60.9725099 345.833176,63.791095 C349.124753,66.60968 353.760992,68.0189514 359.74203,68.0189514 C363.675867,68.0189514 367.338696,67.7175466 370.730627,67.1147278 C374.122557,66.511909 377.765316,65.5099415 381.659012,64.1087952 L381.659012,73.4442932 C378.206869,74.7802699 374.714638,75.7252149 371.182213,76.2791565 C367.649788,76.8330981 363.615658,77.1100647 359.079703,77.1100647 Z M356.490609,29.7971741 C351.994795,29.7971741 348.392177,30.9539171 345.682647,33.2674377 C342.973116,35.5809584 341.357457,38.9534345 340.835622,43.384967 L371.06179,43.384967 C370.981507,38.9208497 369.656868,35.5402276 367.087831,33.2429993 C364.518795,30.945771 360.986423,29.7971741 356.490609,29.7971741 Z M426.017677,21.0970764 C428.867702,21.0970764 431.215926,21.259998 433.062421,21.5858459 L431.677557,32.2898987 C429.670497,31.8988811 427.583186,31.7033752 425.415562,31.7033752 C419.755654,31.7033752 415.169591,33.2022535 411.657236,36.2000549 C408.144882,39.1978564 406.388731,43.0916814 406.388731,47.8816467 L406.388731,76.1325256 L392.239031,76.1325256 L392.239031,22.0746155 L403.317945,22.0746155 L405.184501,31.6056213 L405.907039,31.6056213 C408.114805,28.3797263 410.994892,25.821858 414.547388,23.9319397 C418.099884,22.0420214 421.923275,21.0970764 426.017677,21.0970764 Z" id="explorer" fill="#FFFFFF"></path>
                <path d="M90.2904738,56.0057157 L106.65859,76.1271168 L122.702464,76.1271168 L105.421648,55.8852868 L90.3970144,55.8852868 C95.7836811,49.7994829 106.170167,38.5214263 121.556473,22.0511169 L105.512599,22.0511169 L90.1925088,40.9728276 L74.993049,22.0511169 L58.8285441,22.0511169 L81.2055266,48.5023972 L57.7428684,76.1271168 L73.7867427,76.1271168 C79.3979733,68.8157914 84.866562,62.1456058 90.1925088,56.1165599 C90.2249732,56.0798097 90.2576282,56.0428616 90.2904738,56.0057157 L90.2904738,56.0057157 Z" id="Path-Copy" fill="#00AFFF"></path>
            </g>
        </g>
    </g>
</svg>