<?xml version="1.0" encoding="UTF-8"?>
<svg width="100px" height="25px" viewBox="0 0 100 25" version="1.1" xmlns="http://www.w3.org/2000/svg" xmlns:xlink="http://www.w3.org/1999/xlink">
    <!-- Generator: Sketch 46.1 (44463) - http://www.bohemiancoding.com/sketch -->
    <title>explorer</title>
    <desc>Created with Sketch.</desc>
    <defs></defs>
    <g id="Page-1" stroke="none" stroke-width="1" fill="none" fill-rule="evenodd">
        <g id="dark-bg---new" transform="translate(-69.000000, -87.000000)">
            <g id="explorer" transform="translate(69.250000, 87.000000)">
                <g id="blocks" transform="translate(46.750000, 20.750000)" fill="#A0A6AE">
                    <rect id="block" x="42" y="0" width="4" height="4" rx="1"></rect>
                    <rect id="block" x="35" y="0" width="4" height="4" rx="1"></rect>
                    <rect id="block" x="28" y="0" width="4" height="4" rx="1"></rect>
                    <rect id="block" x="21" y="0" width="4" height="4" rx="1"></rect>
                    <rect id="block" x="14" y="0" width="4" height="4" rx="1"></rect>
                    <rect id="block" x="7" y="0" width="4" height="4" rx="1"></rect>
                    <rect id="block" x="0" y="0" width="4" height="4" rx="1"></rect>
                </g>
                <path d="M8.00585938,18.2068329 C5.65428512,18.2068329 3.81543632,17.6495671 2.48925781,16.5350189 C1.16307931,15.4204707 0.5,13.8856757 0.5,11.9305878 C0.5,9.92366042 1.11522822,8.34628361 2.34570313,7.19841003 C3.57617803,6.05053646 5.26691633,5.47660828 7.41796875,5.47660828 C9.41407248,5.47660828 10.9908796,5.96907568 12.1484375,6.95402527 C13.3059954,7.93897485 13.8847656,9.29418591 13.8847656,11.0196991 L13.8847656,12.4304657 L3.80859375,12.4304657 C3.85416689,13.6227731 4.2506473,14.5392068 4.99804688,15.1797943 C5.74544645,15.8203818 6.79817029,16.1406708 8.15625,16.1406708 C9.04948363,16.1406708 9.88118104,16.0721697 10.6513672,15.9351654 C11.4215533,15.7981611 12.2486935,15.5704412 13.1328125,15.2519989 L13.1328125,17.373703 C12.3489544,17.6773341 11.5559936,17.8920943 10.7539063,18.0179901 C9.95181891,18.1438859 9.03581244,18.2068329 8.00585938,18.2068329 Z M7.41796875,7.4539032 C8.43880719,7.4539032 9.2408825,7.71494795 9.82421875,8.23704529 C10.407555,8.75914263 10.7083332,9.52746583 10.7265625,10.542038 L3.86328125,10.542038 C3.98177143,9.53487147 4.34862974,8.76839964 4.96386719,8.24259949 C5.57910464,7.71679933 6.39713031,7.4539032 7.41796875,7.4539032 Z M20.9558645,13.4103899 L20.9558645,13.4103899 C20.9484064,13.4188322 20.9409916,13.4272295 20.9336201,13.4355818 C19.7242882,14.8058195 18.4825673,16.3217708 17.2084576,17.9834356 L13.5654678,17.9834356 L18.892998,11.7050903 L13.8119859,5.69343567 L17.4823666,5.69343567 L20.9336201,9.99382444 L24.4122645,5.69343567 L28.0552543,5.69343567 C24.5615747,9.43668779 22.2031753,11.9998825 20.980056,13.3830197 L24.3916126,13.3830197 L28.3154678,17.9834356 L24.672478,17.9834356 L20.9558645,13.4103899 Z M36.6269531,18.2068329 C34.7128811,18.2068329 33.2272188,17.6477158 32.1699219,16.5294647 L31.9785156,16.5294647 C32.1061204,17.5662538 32.1699219,18.1957234 32.1699219,18.4178925 L32.1699219,23.4499969 L28.9570312,23.4499969 L28.9570312,5.69877625 L31.5546875,5.69877625 C31.6276045,5.92835096 31.7779937,6.4763598 32.0058594,7.34281921 L32.1699219,7.34281921 C33.1725311,6.09867237 34.6764223,5.47660828 36.6816406,5.47660828 C38.5683688,5.47660828 40.0380807,6.03202264 41.0908203,7.14286804 C42.14356,8.25371344 42.6699219,9.81257643 42.6699219,11.8195038 C42.6699219,13.8264311 42.1344455,15.3926997 41.0634766,16.5183563 C39.9925077,17.644013 38.5136813,18.2068329 36.6269531,18.2068329 Z M35.8476562,7.60942078 C34.5716082,7.60942078 33.6396514,7.9130473 33.0517578,8.52030945 C32.4638642,9.1275716 32.1699219,10.0976954 32.1699219,11.4307098 L32.1699219,11.8195038 C32.1699219,13.3154423 32.4615856,14.3985003 33.0449219,15.0687103 C33.6282581,15.7389204 34.5807226,16.0740204 35.9023438,16.0740204 C37.0143285,16.0740204 37.8710907,15.7037441 38.4726562,14.9631805 C39.0742218,14.2226169 39.375,13.1673296 39.375,11.797287 C39.375,10.4198387 39.0765004,9.37751106 38.4794922,8.67027283 C37.882484,7.96303459 37.0052141,7.60942078 35.8476562,7.60942078 Z M47.6152344,17.9846649 L44.4023438,17.9846649 L44.4023438,0.699996948 L47.6152344,0.699996948 L47.6152344,17.9846649 Z M63.6210938,11.8195038 C63.6210938,13.8264311 62.9876365,15.3926997 61.7207031,16.5183563 C60.4537697,17.644013 58.6901155,18.2068329 56.4296875,18.2068329 C55.01692,18.2068329 53.7682346,17.9476395 52.6835938,17.429245 C51.5989529,16.9108505 50.7649769,16.1665952 50.1816406,15.1964569 C49.5983044,14.2263186 49.3066406,13.1006788 49.3066406,11.8195038 C49.3066406,9.8273877 49.9355406,8.27222747 51.1933594,7.15397644 C52.4511782,6.03572541 54.2239469,5.47660828 56.5117187,5.47660828 C58.6992297,5.47660828 60.4309832,6.04868508 61.7070312,7.19285583 C62.9830793,8.33702659 63.6210938,9.87922716 63.6210938,11.8195038 Z M52.6152344,11.8195038 C52.6152344,14.6558624 53.904935,16.0740204 56.484375,16.0740204 C59.0364711,16.0740204 60.3125,14.6558624 60.3125,11.8195038 C60.3125,9.01276775 59.0273566,7.60942078 56.4570312,7.60942078 C55.1080662,7.60942078 54.1305369,7.9722915 53.5244141,8.69804382 C52.9182912,9.42379615 52.6152344,10.4642724 52.6152344,11.8195038 Z M72.9824219,5.47660828 C73.6295605,5.47660828 74.1627583,5.5136359 74.5820312,5.58769226 L74.2675781,8.02043152 C73.8118467,7.93156389 73.3378931,7.88713074 72.8457031,7.88713074 C71.5605404,7.88713074 70.5192097,8.22778488 69.7216797,8.90910339 C68.9241497,9.5904219 68.5253906,10.4753821 68.5253906,11.5640106 L68.5253906,17.9846649 L65.3125,17.9846649 L65.3125,5.69877625 L67.828125,5.69877625 L68.2519531,7.86491394 L68.4160156,7.86491394 C68.9173202,7.13175598 69.571285,6.55042227 70.3779297,6.12089539 C71.1845743,5.6913685 72.0527297,5.47660828 72.9824219,5.47660828 Z M81.9882812,18.2068329 C79.636707,18.2068329 77.7978582,17.6495671 76.4716797,16.5350189 C75.1455012,15.4204707 74.4824219,13.8856757 74.4824219,11.9305878 C74.4824219,9.92366042 75.0976501,8.34628361 76.328125,7.19841003 C77.5585999,6.05053646 79.2493382,5.47660828 81.4003906,5.47660828 C83.3964944,5.47660828 84.9733015,5.96907568 86.1308594,6.95402527 C87.2884172,7.93897485 87.8671875,9.29418591 87.8671875,11.0196991 L87.8671875,12.4304657 L77.7910156,12.4304657 C77.8365888,13.6227731 78.2330692,14.5392068 78.9804688,15.1797943 C79.7278683,15.8203818 80.7805922,16.1406708 82.1386719,16.1406708 C83.0319055,16.1406708 83.8636029,16.0721697 84.6337891,15.9351654 C85.4039752,15.7981611 86.2311154,15.5704412 87.1152344,15.2519989 L87.1152344,17.373703 C86.3313763,17.6773341 85.5384155,17.8920943 84.7363281,18.0179901 C83.9342408,18.1438859 83.0182343,18.2068329 81.9882812,18.2068329 Z M81.4003906,7.4539032 C80.3795522,7.4539032 79.5615265,7.71679933 78.9462891,8.24259949 C78.3310516,8.76839964 77.9641933,9.53487147 77.8457031,10.542038 L84.7089844,10.542038 C84.6907551,9.52746583 84.3899769,8.75914263 83.8066406,8.23704529 C83.2233044,7.71494795 82.4212291,7.4539032 81.4003906,7.4539032 Z M97.1875,5.47660828 C97.8346387,5.47660828 98.3678364,5.5136359 98.7871094,5.58769226 L98.4726562,8.02043152 C98.0169248,7.93156389 97.5429712,7.88713074 97.0507812,7.88713074 C95.7656186,7.88713074 94.7242878,8.22778488 93.9267578,8.90910339 C93.1292278,9.5904219 92.7304688,10.4753821 92.7304688,11.5640106 L92.7304688,17.9846649 L89.5175781,17.9846649 L89.5175781,5.69877625 L92.0332031,5.69877625 L92.4570312,7.86491394 L92.6210938,7.86491394 C93.1223983,7.13175598 93.7763632,6.55042227 94.5830078,6.12089539 C95.3896525,5.6913685 96.2578079,5.47660828 97.1875,5.47660828 Z" fill="#4A90E2"></path>
            </g>
        </g>
    </g>
</svg>