<?xml version="1.0" encoding="UTF-8"?>
<svg width="109px" height="25px" viewBox="0 0 109 25" version="1.1" xmlns="http://www.w3.org/2000/svg" xmlns:xlink="http://www.w3.org/1999/xlink">
    <!-- Generator: Sketch 46.1 (44463) - http://www.bohemiancoding.com/sketch -->
    <title>explorer</title>
    <desc>Created with Sketch.</desc>
    <defs>
        <linearGradient x1="50%" y1="75.2100378%" x2="50%" y2="50%" id="linearGradient-1">
            <stop stop-color="#5DAEE5" offset="0%"></stop>
            <stop stop-color="#3075C7" offset="100%"></stop>
        </linearGradient>
    </defs>
    <g id="Page-1" stroke="none" stroke-width="1" fill="none" fill-rule="evenodd">
        <g id="dark-bg---new" transform="translate(-69.000000, -85.000000)">
            <g id="explorer" transform="translate(69.000000, 85.000000)">
                <g id="blocks" transform="translate(56.170167, 21.361386)" fill="#606060">
                    <rect id="block" x="42.3115138" y="0" width="3.5193578" height="3.46534653"></rect>
                    <rect id="block" x="35.2868664" y="0" width="3.5193578" height="3.46534653"></rect>
                    <rect id="block" x="28.2469976" y="0" width="3.5193578" height="3.46534653"></rect>
                    <rect id="block" x="21.2223502" y="0" width="3.5193578" height="3.46534653"></rect>
                    <rect id="block" x="14.1824815" y="0" width="3.5193578" height="3.46534653"></rect>
                    <rect id="block" x="7.1578341" y="0" width="3.5193578" height="3.46534653"></rect>
                    <rect id="block" x="0.117965368" y="0" width="3.5193578" height="3.46534653"></rect>
                </g>
                <path d="M8.35284785,19.0866497 C5.75180948,19.0866497 3.71788846,18.4797266 2.25102379,17.2658622 C0.784159125,16.0519978 0.0507377927,14.3804388 0.0507377927,12.2511352 C0.0507377927,10.0653727 0.731231812,8.3474376 2.09224027,7.09727826 C3.45324872,5.84711891 5.3233471,5.22204862 7.70259151,5.22204862 C9.91044967,5.22204862 11.6545306,5.75839926 12.9348867,6.83111663 C14.2152428,7.903834 14.8554113,9.37980644 14.8554113,11.2590782 L14.8554113,12.7955567 L3.71032001,12.7955567 C3.76072773,14.0941093 4.19926832,15.0922054 5.02595493,15.789875 C5.85264155,16.4875446 7.01704243,16.8363741 8.5191925,16.8363741 C9.50718382,16.8363741 10.4271109,16.7617689 11.2790014,16.6125564 C12.1308919,16.4633438 13.0457783,16.2153321 14.0236881,15.8685137 L14.0236881,18.1792805 C13.1566753,18.5099678 12.2795941,18.7438651 11.3924182,18.8809793 C10.5052423,19.0180936 9.49206234,19.0866497 8.35284785,19.0866497 Z M7.70259151,7.37553814 C8.83172445,7.37553814 9.71888703,7.6598443 10.3641058,8.22846517 C11.0093247,8.79708603 11.3420106,9.63387368 11.3621737,10.7388532 L3.77080897,10.7388532 C3.90186904,9.64193922 4.30764511,8.80716793 4.98814933,8.23451429 C5.66865356,7.66186066 6.57345857,7.37553814 7.70259151,7.37553814 Z M22.6766397,13.8628009 L22.6766397,13.8628009 C22.6683905,13.8719955 22.6601891,13.881141 22.6520356,13.8902376 C21.314413,15.3825757 19.9409656,17.0336117 18.5316934,18.8433457 L14.5022412,18.8433457 L20.3949364,12.0055438 L14.7749109,5.45819726 L18.8346598,5.45819726 L22.6520356,10.141789 L26.4997081,5.45819726 L30.5291604,5.45819726 C26.6648577,9.5350065 24.0562701,12.3266047 22.7033976,13.8329918 L26.4768654,13.8329918 L30.8169784,18.8433457 L26.7875261,18.8433457 L22.6766397,13.8628009 Z M40.0101783,19.0866497 C37.893054,19.0866497 36.249787,18.4777102 35.0803279,17.2598131 L34.8686165,17.2598131 C35.0097581,18.3889892 35.0803279,19.0745502 35.0803279,19.3165165 L35.0803279,24.7970264 L31.5266013,24.7970264 L31.5266013,5.46401373 L34.399827,5.46401373 C34.4804794,5.7140456 34.6468224,6.31088691 34.898861,7.25455558 L35.0803279,7.25455558 C36.1892977,5.89954416 37.8527275,5.22204862 40.0706672,5.22204862 C42.1575469,5.22204862 43.7831715,5.82695535 44.9475898,7.03678698 C46.1120082,8.2466186 46.6942086,9.94439017 46.6942086,12.1301526 C46.6942086,14.3159151 46.1019268,16.0217521 44.9173453,17.2477148 C43.7327639,18.4736775 42.0970579,19.0866497 40.0101783,19.0866497 Z M39.1482106,7.54491372 C37.7367944,7.54491372 36.705972,7.87559607 36.0557124,8.53697069 C35.4054528,9.19834531 35.0803279,10.2549157 35.0803279,11.7067137 L35.0803279,12.1301526 C35.0803279,13.7593926 35.4029324,14.9389607 36.0481513,15.6688924 C36.6933701,16.3988242 37.7468756,16.7637846 39.2086995,16.7637846 C40.4386479,16.7637846 41.3862989,16.3605134 42.0516808,15.553959 C42.7170627,14.7474046 43.0497486,13.5980818 43.0497486,12.1059561 C43.0497486,10.6057649 42.719583,9.4705566 42.0592419,8.70029714 C41.3989007,7.93003767 40.4285667,7.54491372 39.1482106,7.54491372 Z M52.1641391,18.8446846 L48.6104125,18.8446846 L48.6104125,0.0197986565 L52.1641391,0.0197986565 L52.1641391,18.8446846 Z M69.8679621,12.1301526 C69.8679621,14.3159151 69.1673053,16.0217521 67.7659707,17.2477148 C66.364636,18.4736775 64.4138865,19.0866497 61.9136636,19.0866497 C60.3510242,19.0866497 58.9698734,18.8043599 57.7701697,18.2397718 C56.5704659,17.6751837 55.6480185,16.8646087 55.0027996,15.8080224 C54.3575808,14.7514361 54.0349762,13.5254918 54.0349762,12.1301526 C54.0349762,9.96052126 54.7305923,8.2667824 56.1218454,7.04888523 C57.5130985,5.83098807 59.4739294,5.22204862 62.004397,5.22204862 C64.4239676,5.22204862 66.3394322,5.84510256 67.7508484,7.09122913 C69.1622646,8.3373557 69.8679621,10.0169801 69.8679621,12.1301526 Z M57.6945585,12.1301526 C57.6945585,15.219256 59.1210755,16.7637846 61.9741525,16.7637846 C64.7969849,16.7637846 66.2083799,15.219256 66.2083799,12.1301526 C66.2083799,9.07331141 64.7869035,7.54491372 61.943908,7.54491372 C60.4518395,7.54491372 59.3706101,7.94011945 58.7001874,8.73054278 C58.0297648,9.5209661 57.6945585,10.6541581 57.6945585,12.1301526 Z M80.2223762,5.22204862 C80.9381659,5.22204862 81.5279273,5.26237573 81.9916784,5.34303118 L81.6438668,7.99254918 C81.1397896,7.89576265 80.6155572,7.84737011 80.0711538,7.84737011 C78.6496561,7.84737011 77.497857,8.21837958 76.6157219,8.96040964 C75.7335868,9.7024397 75.2925258,10.6662578 75.2925258,11.8518928 L75.2925258,18.8446846 L71.7387993,18.8446846 L71.7387993,5.46401373 L74.5212915,5.46401373 L74.990081,7.8231736 L75.1715479,7.8231736 C75.7260328,7.02468473 76.4493728,6.39154901 77.3415894,5.92374745 C78.2338061,5.45594589 79.1940587,5.22204862 80.2223762,5.22204862 Z M90.1836121,19.0866497 C87.5825737,19.0866497 85.5486527,18.4797266 84.0817881,17.2658622 C82.6149234,16.0519978 81.8815021,14.3804388 81.8815021,12.2511352 C81.8815021,10.0653727 82.5619961,8.3474376 83.9230045,7.09727826 C85.284013,5.84711891 87.1541114,5.22204862 89.5333558,5.22204862 C91.7412139,5.22204862 93.4852949,5.75839926 94.765651,6.83111663 C96.0460071,7.903834 96.6861756,9.37980644 96.6861756,11.2590782 L96.6861756,12.7955567 L85.5410843,12.7955567 C85.591492,14.0941093 86.0300326,15.0922054 86.8567192,15.789875 C87.6834058,16.4875446 88.8478067,16.8363741 90.3499568,16.8363741 C91.3379481,16.8363741 92.2578752,16.7617689 93.1097657,16.6125564 C93.9616561,16.4633438 94.8765425,16.2153321 95.8544523,15.8685137 L95.8544523,18.1792805 C94.9874395,18.5099678 94.1103583,18.7438651 93.2231825,18.8809793 C92.3360066,19.0180936 91.3228266,19.0866497 90.1836121,19.0866497 Z M89.5333558,7.37553814 C88.4042228,7.37553814 87.4994178,7.66186066 86.8189136,8.23451429 C86.1384094,8.80716793 85.7326333,9.64193922 85.6015732,10.7388532 L93.192938,10.7388532 C93.1727749,9.63387368 92.8400889,8.79708603 92.1948701,8.22846517 C91.5496513,7.6598443 90.6624887,7.37553814 89.5333558,7.37553814 Z M106.995223,5.22204862 C107.711013,5.22204862 108.300774,5.26237573 108.764525,5.34303118 L108.416714,7.99254918 C107.912636,7.89576265 107.388404,7.84737011 106.844001,7.84737011 C105.422503,7.84737011 104.270704,8.21837958 103.388569,8.96040964 C102.506433,9.7024397 102.065373,10.6662578 102.065373,11.8518928 L102.065373,18.8446846 L98.511646,18.8446846 L98.511646,5.46401373 L101.294138,5.46401373 L101.762928,7.8231736 L101.944395,7.8231736 C102.49888,7.02468473 103.222219,6.39154901 104.114436,5.92374745 C105.006653,5.45594589 105.966905,5.22204862 106.995223,5.22204862 Z" fill="url(#linearGradient-1)"></path>
            </g>
        </g>
    </g>
</svg>